<svg width="16" height="20" viewBox="0 0 16 20" fill="none" xmlns="http://www.w3.org/2000/svg">
<path d="M6.46416 5.33334C7.08861 5.33334 7.59483 4.82712 7.59483 4.20267C7.59483 3.57822 7.08861 3.07201 6.46416 3.07201C5.83971 3.07201 5.3335 3.57822 5.3335 4.20267C5.3335 4.82712 5.83971 5.33334 6.46416 5.33334Z" fill="#3B6EFF"/>
<path d="M8.50244 5.2373L8.61338 4.20267L8.50244 3.16797L9.53708 3.27891L10.5712 3.16797L10.4603 4.20267L10.5712 5.2373L9.53708 5.12643L8.50244 5.2373Z" fill="#3B6EFF"/>
<path d="M8.40625 1.13066C8.40636 0.907184 8.47265 0.688757 8.59688 0.502989C8.7211 0.317221 8.89742 0.172444 9.10391 0.0869733C9.31039 0.00150234 9.5376 -0.0208428 9.75677 0.0227806C9.97595 0.0664041 10.1774 0.174071 10.3354 0.332091C10.4934 0.49011 10.6009 0.691431 10.6445 0.910606C10.6882 1.12978 10.6659 1.35692 10.5805 1.56341C10.495 1.76989 10.3504 1.94641 10.1646 2.07063C9.97882 2.19485 9.76019 2.26122 9.53672 2.26132C9.23693 2.26104 8.94948 2.14186 8.7375 1.92988C8.52552 1.7179 8.40653 1.43044 8.40625 1.13066Z" fill="#3B6EFF"/>
<path d="M6.46481 0.2069L7.49893 0.0960278L7.38799 1.13066L7.49893 2.16478L6.46481 2.05384L5.43018 2.16478L5.54111 1.13014L5.43018 0.0954418L6.46481 0.2069Z" fill="#3B6EFF"/>
<path d="M9.85645 13.5893L10.0575 15.4667L9.85645 17.344L11.7338 17.1429L13.6106 17.344L13.4101 15.4667L13.6106 13.5893L11.7338 13.7904L9.85645 13.5893Z" fill="#3B6EFF"/>
<path d="M2.38965 15.4667C2.38965 15.838 2.49975 16.201 2.70605 16.5097C2.91236 16.8184 3.20569 17.0591 3.54876 17.2012C3.89183 17.3432 4.26922 17.3804 4.6334 17.3079C4.99758 17.2354 5.33207 17.0565 5.5946 16.7939C5.85713 16.5313 6.03602 16.1968 6.1084 15.8326C6.18078 15.4684 6.14354 15.0909 6.00137 14.7479C5.85919 14.4048 5.6185 14.1117 5.3097 13.9055C5.0009 13.6993 4.6378 13.5892 4.26647 13.5893C3.76884 13.59 3.29174 13.788 2.93991 14.14C2.58808 14.4919 2.39021 14.969 2.38965 15.4667Z" fill="#3B6EFF"/>
<path d="M0 11.2V19.7333H16V11.2H0ZM7.46667 18.6667H1.06667V12.2667H7.46667V18.6667ZM14.9333 18.6667H8.53333V12.2667H14.9333V18.6667Z" fill="#66BFFF"/>
<path d="M12.7999 11.2H11.0238L8.00508 8.93333L4.97591 11.2H3.20508V11.1947L7.47174 7.97331V6.39466H8.53841L8.54388 8.00534L12.7999 11.2Z" fill="#66BFFF"/>
</svg>
