<svg width="200" height="323" viewBox="0 0 200 323" fill="none" xmlns="http://www.w3.org/2000/svg">
<path d="M78.454 285.903L62.634 289.73L46.36 290.116L50.1891 305.938L50.5721 322.205L66.395 318.383L82.666 317.993L78.84 302.178L78.454 285.903Z" stroke="#3B6EFF" stroke-miterlimit="10" stroke-dasharray="5 5"/>
<path d="M23.2999 99.957C19.9228 99.0447 16.351 99.1544 13.0362 100.272C9.72138 101.39 6.81242 103.465 4.67717 106.236C2.54193 109.007 1.27632 112.349 1.04033 115.839C0.804354 119.329 1.60861 122.811 3.35143 125.844C5.09425 128.877 7.69735 131.325 10.8315 132.879C13.9657 134.432 17.4902 135.022 20.9594 134.572C24.4286 134.123 27.6865 132.655 30.3213 130.354C32.9562 128.053 34.8495 125.022 35.7619 121.645C36.9796 117.117 36.3514 112.29 34.0151 108.224C31.6789 104.159 27.8254 101.185 23.2999 99.957" stroke="#66BFFF" stroke-miterlimit="10" stroke-dasharray="5 5"/>
<path d="M23.2998 0.612073C19.9228 -0.30025 16.351 -0.190615 13.0362 0.927015C9.72136 2.04465 6.8124 4.12013 4.67716 6.89101C2.54191 9.66188 1.2763 13.0036 1.04032 16.4938C0.804339 19.984 1.6086 23.4658 3.35142 26.4989C5.09424 29.532 7.69733 31.9802 10.8315 33.5338C13.9657 35.0875 17.4902 35.6769 20.9594 35.2274C24.4285 34.778 27.6865 33.31 30.3213 31.0089C32.9561 28.7079 34.8495 25.6771 35.7619 22.3001C36.9793 17.7717 36.3509 12.9454 34.0147 8.87965C31.6785 4.8139 27.8252 1.84063 23.2998 0.612073Z" fill="#66BFFF"/>
<path d="M199.547 170.446L178.74 158.798L160.871 143.009L149.226 163.818L133.438 181.68L154.245 193.328L172.114 209.117L183.755 188.317L199.547 170.446Z" fill="#3B6EFF"/>
</svg>
