<svg width="10" height="19" viewBox="0 0 10 19" fill="none" xmlns="http://www.w3.org/2000/svg">
<path d="M3.53588 15.5513H0.00146484V17.2177H3.53588V15.5513Z" fill="#66BFFF"/>
<path d="M5.83289 8.88741H4.1665V11.1076H5.83289V8.88741Z" fill="#3B6EFF"/>
<path d="M5.83289 13.33H4.1665V18.9113H5.83289V13.33Z" fill="#3B6EFF"/>
<path d="M9.99833 14.1643C9.99894 14.6477 9.88278 15.1241 9.65958 15.553C9.40551 16.055 9.01684 16.4766 8.53726 16.7708C8.05767 17.065 7.50593 17.2203 6.94329 17.2194H5.83236V15.553H6.94329C7.31158 15.553 7.66469 15.4067 7.92511 15.1463C8.18553 14.8858 8.33194 14.5326 8.33194 14.1643C8.33194 13.796 8.18553 13.4428 7.92511 13.1823C7.66469 12.9219 7.31158 12.7757 6.94329 12.7757H3.05505C2.49241 12.7766 1.94065 12.6213 1.46107 12.3271C0.981499 12.0328 0.592871 11.6112 0.338756 11.1093C0.116181 10.6802 0 10.204 0 9.72061C0 9.23726 0.116181 8.761 0.338756 8.33195C0.592871 7.82997 0.981499 7.40838 1.46107 7.11416C1.94065 6.81994 2.49241 6.66465 3.05505 6.66556H9.99833V8.33195H3.05505C2.68675 8.33195 2.33337 8.47822 2.07295 8.73865C1.81253 8.99907 1.66639 9.35231 1.66639 9.72061C1.66639 10.0889 1.81253 10.4421 2.07295 10.7026C2.33337 10.963 2.68675 11.1093 3.05505 11.1093H6.94329C7.50593 11.1083 8.05767 11.2636 8.53726 11.5578C9.01684 11.852 9.40551 12.2736 9.65958 12.7757C9.88278 13.2045 9.99894 13.6809 9.99833 14.1643Z" fill="#66BFFF"/>
<path d="M4.99997 0L2.22266 4.4437H7.78054L4.99997 0Z" fill="#3B6EFF"/>
<path d="M5.83289 2.84729V6.66556H4.1665V2.83617L5.83289 2.84729Z" fill="#3B6EFF"/>
</svg>
