<svg width="16" height="13" viewBox="0 0 16 13" fill="none" xmlns="http://www.w3.org/2000/svg">
<g clip-path="url(#clip0)">
<path d="M16.0002 0V7.46667H6.60277L5.3335 3.41335V0H9.24287V2.79466L10.6668 1.74935L12.0908 2.79466V0H16.0002Z" fill="#66BFFF"/>
<path d="M7.20003 12.2667C7.93641 12.2667 8.53337 11.6697 8.53337 10.9333C8.53337 10.197 7.93641 9.6 7.20003 9.6C6.46365 9.6 5.8667 10.197 5.8667 10.9333C5.8667 11.6697 6.46365 12.2667 7.20003 12.2667Z" fill="#3B6EFF"/>
<path d="M13.5999 12.2667C14.3363 12.2667 14.9333 11.6697 14.9333 10.9333C14.9333 10.197 14.3363 9.6 13.5999 9.6C12.8636 9.6 12.2666 10.197 12.2666 10.9333C12.2666 11.6697 12.8636 12.2667 13.5999 12.2667Z" fill="#3B6EFF"/>
<path d="M15.9958 8.53333V10.1333H4.80098L2.10775 1.6H0.000976562V0H3.20098L5.86764 8.53333H15.9958Z" fill="#3B6EFF"/>
</g>
<defs>
<clipPath id="clip0">
<rect width="16" height="12.2667" fill="white"/>
</clipPath>
</defs>
</svg>
