<svg width="16" height="13" viewBox="0 0 16 13" fill="none" xmlns="http://www.w3.org/2000/svg">
<g clip-path="url(#clip0)">
<path d="M15 5V8.25C14.9979 8.65489 14.9074 9.05445 14.7346 9.42065C14.5619 9.78686 14.3111 10.1109 14 10.37C13.8452 10.497 13.6777 10.6077 13.5 10.7C13.1136 10.8992 12.6847 11.0021 12.25 11H4.5V13L0 10.185L4.5 7.37V9.5H12.25C12.5815 9.5 12.8994 9.36833 13.1338 9.13391C13.3682 8.89949 13.5 8.58152 13.5 8.25V5.935L15 5Z" fill="#3B6EFF"/>
<path d="M1 8V4.75C0.99959 4.31486 1.10415 3.88605 1.30493 3.5C1.47438 3.16534 1.71103 2.86919 2 2.63C2.15493 2.50318 2.32248 2.39258 2.5 2.29999C2.88644 2.10081 3.31526 1.99791 3.75 2H11.5V0L16 2.815L11.5 5.63V3.5H3.75C3.41848 3.5 3.10063 3.63167 2.86621 3.86609C2.63179 4.10051 2.5 4.41848 2.5 4.75V7.065L1 8Z" fill="#66BFFF"/>
</g>
<defs>
<clipPath id="clip0">
<rect width="16" height="13" fill="white"/>
</clipPath>
</defs>
</svg>
