<svg xmlns="http://www.w3.org/2000/svg" viewBox="0 0 22.56 28.03"><defs><style>.cls-1{fill:#3b6eff;}.cls-2{fill:#66bfff;}</style></defs><g id="Layer_3" data-name="Layer 3"><polygon class="cls-1" points="11.28 28.02 11.29 28.02 11.28 28.03 11.28 28.02"/><polygon class="cls-1" points="11.29 18.03 11.28 18.03 11.28 18.02 11.29 18.03"/><polygon class="cls-1" points="20.28 17.15 20.28 23.03 11.3 28.02 11.28 28.02 2.3 23.03 2.3 17.15 7.62 20.01 11.28 18.03 11.3 18.03 14.96 20.01 20.28 17.15"/><polygon class="cls-1" points="11.3 18.02 11.3 18.03 11.29 18.03 11.3 18.02"/><polygon class="cls-1" points="11.29 28.02 11.3 28.02 11.3 28.03 11.29 28.02"/><polygon class="cls-1" points="3.47 12.77 11.29 16.91 7.68 18.84 0 14.71 3.47 12.77"/><polygon class="cls-1" points="22.56 14.71 14.89 18.84 11.29 16.91 19.09 12.77 22.56 14.71"/><polygon class="cls-2" points="16.09 7.02 6.47 7.02 11.28 0 16.09 7.02"/><polygon class="cls-2" points="13.28 13.03 11.29 13.03 9.28 13.03 9.28 6.53 13.28 6.53 13.28 13.03"/></g></svg>