<svg width="71" height="70" viewBox="0 0 71 70" fill="none" xmlns="http://www.w3.org/2000/svg">
<path d="M35.5558 69.9668C54.7212 69.9668 70.2578 54.5157 70.2578 35.4558C70.2578 16.3959 54.7212 0.944824 35.5558 0.944824C16.3904 0.944824 0.853821 16.3959 0.853821 35.4558C0.853821 54.5157 16.3904 69.9668 35.5558 69.9668Z" fill="#CEDBFF"/>
<path d="M51.1497 23.373V47.54C47.9272 47.54 44.8367 46.2668 42.558 44.0007C40.2794 41.7346 38.9993 38.6613 38.9993 35.4565C38.9993 32.2518 40.2794 29.1782 42.558 26.9121C44.8367 24.646 47.9272 23.373 51.1497 23.373Z" fill="#3B6EFF"/>
<path d="M19.967 47.54V23.373C23.1895 23.373 26.2801 24.646 28.5587 26.9121C30.8373 29.1782 32.1174 32.2518 32.1174 35.4565C32.1174 38.6613 30.8373 41.7346 28.5587 44.0007C26.2801 46.2668 23.1895 47.54 19.967 47.54Z" fill="#3B6EFF"/>
<path d="M37.6795 24.323L40.4065 22.137L37.6805 19.95L35.4814 17.238L33.2823 19.95L30.5553 22.137L33.2833 24.324L35.4814 27.0359L37.6795 24.323Z" fill="#3B6EFF"/>
<path d="M37.6795 50.9629L40.4065 48.7769L37.6805 46.5908L35.4814 43.8789L33.2823 46.5908L30.5553 48.7778L33.2833 50.9648L35.4814 53.677L37.6795 50.9629Z" fill="#3B6EFF"/>
</svg>
