<svg width="36" height="35" viewBox="0 0 36 35" fill="none" xmlns="http://www.w3.org/2000/svg">
<path d="M17.5954 34.9971C27.313 34.9971 35.1907 27.1627 35.1907 17.4985C35.1907 7.83435 27.313 0 17.5954 0C7.87774 0 0 7.83435 0 17.4985C0 27.1627 7.87774 34.9971 17.5954 34.9971Z" fill="#D0D0D0"/>
<path d="M27.6435 20.5466L25.7674 19.4633C25.9568 18.4414 25.9568 17.3935 25.7674 16.3717L27.6435 15.2883C27.7475 15.2279 27.828 15.1341 27.872 15.0222C27.9159 14.9103 27.9208 14.7868 27.8857 14.6717C27.4009 13.1219 26.5781 11.699 25.4768 10.5056C25.3957 10.4173 25.287 10.3592 25.1686 10.3408C25.0502 10.3223 24.929 10.3447 24.825 10.4043L22.9489 11.4877C22.1608 10.8095 21.2526 10.2852 20.2713 9.94186V7.7795C20.2712 7.65965 20.2304 7.54337 20.1556 7.44975C20.0808 7.35612 19.9764 7.29071 19.8595 7.26424C18.2758 6.91192 16.634 6.91192 15.0503 7.26424C14.933 7.29027 14.8281 7.3555 14.7529 7.44917C14.6776 7.54284 14.6365 7.65935 14.6364 7.7795V9.94626C13.6575 10.2949 12.7502 10.8187 11.9587 11.4921L10.0848 10.4087C9.98108 10.3482 9.85966 10.3252 9.74098 10.3437C9.62229 10.3621 9.51356 10.4208 9.43306 10.51C8.32988 11.702 7.50686 13.1254 7.02408 14.6761C6.98813 14.7911 6.99254 14.9149 7.0366 15.0271C7.08065 15.1392 7.16169 15.2329 7.2663 15.2927L9.14239 16.3761C8.95302 17.3979 8.95302 18.4458 9.14239 19.4677L7.2663 20.5511C7.16216 20.6113 7.08151 20.7051 7.03752 20.817C6.99353 20.929 6.98879 21.0526 7.02408 21.1676C7.50868 22.7176 8.33148 24.1406 9.43306 25.3338C9.51411 25.4221 9.62277 25.4802 9.74121 25.4986C9.85964 25.517 9.98082 25.4946 10.0848 25.4351L11.9609 24.3517C12.7488 25.03 13.6571 25.5544 14.6386 25.8975V28.0642C14.6387 28.1844 14.6798 28.3009 14.7551 28.3946C14.8303 28.4883 14.9352 28.5535 15.0525 28.5795C16.6362 28.9318 18.278 28.9318 19.8617 28.5795C19.979 28.5535 20.0839 28.4883 20.1592 28.3946C20.2344 28.3009 20.2755 28.1844 20.2757 28.0642V25.8975C21.2545 25.5487 22.1618 25.0249 22.9533 24.3517L24.8294 25.4351C24.9332 25.4955 25.0546 25.5184 25.1732 25.5C25.2919 25.4815 25.4006 25.4228 25.4812 25.3338C26.5845 24.1419 27.4076 22.7185 27.8901 21.1676C27.9239 21.0514 27.918 20.9273 27.8733 20.8148C27.8287 20.7024 27.7478 20.608 27.6435 20.5466V20.5466ZM17.4527 22.1409C16.6174 22.1409 15.8008 21.8932 15.1063 21.4291C14.4118 20.965 13.8704 20.3054 13.5508 19.5337C13.2311 18.762 13.1475 17.9128 13.3104 17.0935C13.4734 16.2743 13.8756 15.5217 14.4663 14.9311C15.057 14.3404 15.8095 13.9382 16.6288 13.7752C17.448 13.6122 18.2972 13.6959 19.0689 14.0155C19.8407 14.3352 20.5003 14.8765 20.9644 15.5711C21.4284 16.2656 21.6761 17.0822 21.6761 17.9175C21.6762 18.4721 21.567 19.0213 21.3548 19.5338C21.1425 20.0462 20.8314 20.5118 20.4392 20.904C20.0471 21.2962 19.5814 21.6073 19.069 21.8195C18.5566 22.0317 18.0074 22.1409 17.4527 22.1409Z" fill="#7E7E7E"/>
<path d="M17.4528 20.7316C16.8962 20.7316 16.3521 20.5665 15.8894 20.2573C15.4266 19.9481 15.0659 19.5086 14.8529 18.9943C14.6399 18.4801 14.5842 17.9143 14.6927 17.3684C14.8013 16.8225 15.0694 16.3211 15.4629 15.9275C15.8565 15.534 16.3579 15.2659 16.9038 15.1573C17.4497 15.0488 18.0155 15.1045 18.5297 15.3175C19.044 15.5305 19.4835 15.8912 19.7927 16.354C20.1019 16.8167 20.267 17.3608 20.267 17.9174C20.267 18.287 20.1942 18.6529 20.0527 18.9943C19.9113 19.3358 19.704 19.646 19.4427 19.9073C19.1814 20.1686 18.8712 20.3759 18.5297 20.5173C18.1883 20.6588 17.8224 20.7316 17.4528 20.7316V20.7316Z" fill="#7E7E7E"/>
</svg>
