<svg width="70" height="70" viewBox="0 0 70 70" fill="none" xmlns="http://www.w3.org/2000/svg">
<path d="M35.2622 69.9668C54.4275 69.9668 69.9642 54.5157 69.9642 35.4558C69.9642 16.3959 54.4275 0.944824 35.2622 0.944824C16.0968 0.944824 0.5602 16.3959 0.5602 35.4558C0.5602 54.5157 16.0968 69.9668 35.2622 69.9668Z" fill="#FFF1D6"/>
<path d="M26.1309 44.572H44.4015C44.4015 46.9815 43.439 49.2923 41.7258 50.9961C40.0126 52.6999 37.689 53.657 35.2662 53.657C32.8434 53.657 30.5198 52.6999 28.8066 50.9961C27.0934 49.2923 26.1309 46.9815 26.1309 44.572Z" fill="#FFA600"/>
<path d="M48.1521 40.499H22.3521V40.4771L20.8187 26.113L35.2632 27.6589L49.7077 26.1328L48.1521 40.4771V40.499Z" fill="#FFA600"/>
<path d="M41.2602 23.95H29.2551V23.9399L28.5412 17.2559L35.2622 17.9749L41.9832 17.2649L41.2592 23.939L41.2602 23.95Z" fill="#FFA600"/>
</svg>
